<?xml version="1.0" standalone="no"?><!DOCTYPE svg PUBLIC "-//W3C//DTD SVG 1.1//EN" "http://www.w3.org/Graphics/SVG/1.1/DTD/svg11.dtd"><svg t="1533453016454" class="icon" style="" viewBox="0 0 1024 1024" version="1.1" xmlns="http://www.w3.org/2000/svg" p-id="2661" xmlns:xlink="http://www.w3.org/1999/xlink" width="200" height="200"><defs><style type="text/css"></style></defs><path d="M904.8 434.9c-10.8 0-20.9-4.1-28.7-11.6l-0.1-0.1c-97-97-225.9-150.4-363.1-150.4s-266.1 53.4-363.1 150.4l-0.1 0.1c-7.7 7.5-17.9 11.6-28.7 11.6-11 0-21.4-4.3-29.2-12.1-15.7-15.8-15.9-41.8-0.4-57.9l0.1-0.1c56.9-56.9 123.2-100.9 197.2-130.9 71.4-29 146.9-43.6 224.3-43.6s152.9 14.7 224.3 43.6c73.9 30 140.3 74 197.2 130.9l0.1 0.1c15.5 16.1 15.3 42.1-0.5 57.9-7.9 7.8-18.3 12.1-29.3 12.1z" p-id="2662" fill="#ffffff"></path><path d="M758.6 545.8c-10.8 0-20.9-4.1-28.7-11.6l-0.1-0.1c-57.9-57.9-134.9-89.8-216.9-89.8-81.9 0-158.9 31.9-216.9 89.8l-0.1 0.1c-7.7 7.5-17.9 11.6-28.7 11.6-11 0-21.4-4.3-29.2-12.1-15.8-15.8-16.1-41.8-0.5-57.9l0.1-0.1c37.2-37.2 80.5-65.9 128.8-85.5 46.6-18.9 95.9-28.5 146.5-28.5 50.6 0 99.8 9.6 146.5 28.5 48.3 19.6 91.6 48.4 128.8 85.5l0.1 0.1c15.5 16.1 15.3 42.1-0.5 57.9-7.8 7.8-18.2 12.1-29.2 12.1z" p-id="2663" fill="#ffffff"></path><path d="M635.8 655.1c-11 0-21.4-4.3-29.2-12.1-25.1-25.1-58.4-38.9-93.9-38.9-35.5 0-68.8 13.8-93.9 38.9l-0.1 0.1c-7.7 7.5-17.9 11.6-28.7 11.6-11 0-21.4-4.3-29.2-12.1-15.8-15.8-16.1-41.8-0.5-57.9l0.1-0.1c40.7-40.7 94.7-63.1 152.3-63.1 56.7 0 110 21.8 150.5 61.3l1.8 1.8c10.4 10.4 14.5 25.7 10.7 39.9-3.8 14.2-15 25.4-29.2 29.2-3.5 0.9-7.1 1.4-10.7 1.4zM513 857.9c-45 0-81.6-36.6-81.6-81.6 0-45 36.6-81.6 81.6-81.6 45 0 81.6 36.6 81.6 81.6 0 44.9-36.6 81.6-81.6 81.6z" p-id="2664" fill="#ffffff"></path></svg>