<?xml version="1.0" standalone="no"?><!DOCTYPE svg PUBLIC "-//W3C//DTD SVG 1.1//EN" "http://www.w3.org/Graphics/SVG/1.1/DTD/svg11.dtd"><svg t="1533372002102" class="icon" style="" viewBox="0 0 1024 1024" version="1.1" xmlns="http://www.w3.org/2000/svg" p-id="3894" xmlns:xlink="http://www.w3.org/1999/xlink" width="200" height="200"><defs><style type="text/css"></style></defs><path d="M850.130044 238.728126 235.046271 238.728126c-48.988738 0-88.852654-39.898709-88.852654-88.886423 0-48.989761 39.86494-88.883353 88.852654-88.883353L763.554246 60.95835c15.311731 0 27.676339 12.394285 27.676339 27.676339s-12.364609 27.677363-27.676339 27.677363L235.046271 116.312052c-18.488073 0-33.499975 15.040555-33.499975 33.529651 0 18.49319 15.011902 33.533744 33.499975 33.533744l615.084797 0c15.306614 0 27.676339 12.395308 27.676339 27.677363C877.806383 226.328725 865.436658 238.728126 850.130044 238.728126L850.130044 238.728126zM850.130044 238.728126" p-id="3895"></path><path d="M850.130044 963.04165 235.046271 963.04165c-48.988738 0-88.852654-39.893592-88.852654-88.912006 0-15.282055 12.364609-27.676339 27.676339-27.676339 15.312754 0 27.677363 12.394285 27.677363 27.676339 0 18.522865 15.011902 33.56035 33.499975 33.56035l615.084797 0c15.306614 0 27.676339 12.398378 27.676339 27.676339C877.806383 950.648388 865.436658 963.04165 850.130044 963.04165L850.130044 963.04165zM850.130044 963.04165" p-id="3896"></path><path d="M173.868933 901.807007c-15.311731 0-27.676339-12.395308-27.676339-27.677363L146.192593 149.84068c0-15.276938 12.364609-27.677363 27.676339-27.677363 15.312754 0 27.677363 12.400425 27.677363 27.677363l0 724.288964C201.546296 889.407606 189.181687 901.807007 173.868933 901.807007L173.868933 901.807007zM173.868933 901.807007" p-id="3897"></path><path d="M850.130044 963.04165c-15.312754 0-27.682479-12.394285-27.682479-27.676339L822.447565 211.051787c0-15.282055 12.369725-27.682479 27.682479-27.682479 15.306614 0 27.676339 12.400425 27.676339 27.682479L877.806383 935.366334C877.806383 950.648388 865.436658 963.04165 850.130044 963.04165L850.130044 963.04165zM850.130044 963.04165" p-id="3898"></path><path d="M763.554246 238.728126c-15.306614 0-27.677363-12.398378-27.677363-27.676339L735.876883 88.633666c0-15.282055 12.370749-27.676339 27.677363-27.676339s27.676339 12.394285 27.676339 27.676339l0 122.418121C791.230586 226.328725 778.859837 238.728126 763.554246 238.728126L763.554246 238.728126zM763.554246 238.728126" p-id="3899"></path><path d="M672.359244 418.659125 339.393827 418.659125c-15.253402 0-27.618011-12.400425-27.618011-27.677363 0-15.281031 12.364609-27.676339 27.618011-27.676339l332.965417 0c15.247262 0 27.676339 12.395308 27.676339 27.676339C700.035584 406.258701 687.606507 418.659125 672.359244 418.659125L672.359244 418.659125zM672.359244 418.659125" p-id="3900"></path><path d="M512 544.134885 339.393827 544.134885c-15.253402 0-27.618011-12.400425-27.618011-27.676339 0-15.282055 12.364609-27.677363 27.618011-27.677363l172.606173 0c15.306614 0 27.676339 12.395308 27.676339 27.677363C539.676339 531.735483 527.306614 544.134885 512 544.134885L512 544.134885zM512 544.134885" p-id="3901"></path></svg>