<?xml version="1.0" standalone="no"?><!DOCTYPE svg PUBLIC "-//W3C//DTD SVG 1.1//EN" "http://www.w3.org/Graphics/SVG/1.1/DTD/svg11.dtd"><svg t="1533194412414" class="icon" style="" viewBox="0 0 1024 1024" version="1.1" xmlns="http://www.w3.org/2000/svg" p-id="8023" xmlns:xlink="http://www.w3.org/1999/xlink" width="200" height="200"><defs><style type="text/css"></style></defs><path d="M511.669 512.504m-450 0a450 450 0 1 0 900 0 450 450 0 1 0-900 0Z" fill="#FFE7E0" p-id="8024"></path><path d="M748.951 662.695c-2.819-42.279-24.284-72.191-25.531-119.598 8.925-79.855-5.851-125.343-31.073-162.92 25.905-2.426 52.054-33.021 52.054-78.209 0-33.821-8.44-45.433-14.092-36.013-32.881 54.802-64.394 24.655-83.346 64.578-22.53-11.976-56.575-18.097-79.289-19.491-53.596-3.289-97.239 5.575-132.706 22.202-19.789-25.298-86.667-35.313-123.244-52.094-12.923-5.929-19.985-0.516-6.555 36.577 11.012 30.415 34.293 68.26 62.819 83.772-48.447 60.114-51.775 168.727-56.369 219.26-9.15 100.644-109.72 79.006-178.341 86.848 25.713 102.535 107.859 182.581 205.583 231.8 67.606 34.05 140.533 40.681 190.184 25.589 115.019-34.96 96.141-153.457 109.821-197.838 71.082-1.716 113.895-47.314 110.085-104.463z" fill="#FFD2B5" p-id="8025"></path><path d="M481.35 692.159c-1.879 3.132 9.589 38.274 27.419 52.957 29.857 24.588 53.506 34.224 79.709 44.05 16.781 6.293 39.156 25.871 39.505 52.44 4.195-21.675 7.167-52.965 9.005-69.75-59.186-4.54-120.564-54.018-155.638-79.697z" fill="#F4A7A8" p-id="8026"></path><path d="M356.714 320.13c-15.031-5.01-23.8-7.516-48.852-28.81-10.564-8.979 11.9 48.226 40.084 70.147 22.786 17.722 41.963 11.274 45.721-3.758 3.758-15.032-17.024-30.936-36.953-37.579z" fill="#E685B2" p-id="8027"></path><path d="M528.48 810.375c-57.708 6.839-171.483 81.099-173.362 135.588 24.822 11.886 100.86 35.815 149.455 24.628 63.515-14.622 94.48-35.116 115.369-98.569 9.627-29.242-28.048-69.163-91.462-61.647z" fill="#FFFFCF" p-id="8028"></path><path d="M189.931 787.068a23.074 11.93 0 1 0 46.148 0 23.074 11.93 0 1 0-46.148 0Z" fill="#FFFFCF" p-id="8029"></path><path d="M145.881 728.335a22.025 13.766 0 1 0 44.05 0 22.025 13.766 0 1 0-44.05 0Z" fill="#FFFFCF" p-id="8030"></path><path d="M232.933 724.14a20.976 11.93 0 1 0 41.952 0 20.976 11.93 0 1 0-41.952 0Z" fill="#FFFFCF" p-id="8031"></path><path d="M449.368 591.774c3.595 3.359 10.781 1.661 16.05-3.792 5.269-5.453 6.627-12.596 3.032-15.955-3.595-3.359-10.781-1.661-16.05 3.792s-6.626 12.596-3.032 15.955z" fill="#FFFFCF" p-id="8032"></path><path d="M421.718 543.758a14.205 8.15 0 1 0 28.41 0 14.205 8.15 0 1 0-28.41 0Z" fill="#FFFFCF" p-id="8033"></path><path d="M651.155 757.098c-13.079-1.319-19.003-3.468-30.334-11.452-9.507-6.699-19.375-17.595-18.185-19.049 0.133-0.162 0.592-0.818 0.723-1.211 0.618-1.854-1.588-2.983-2.753-1.311-1.71 2.454-2.163 4.982-13.315 7.831-2.574 0.658-0.799 2.255 1.08 2.138 4.193-0.262 9.565-3.118 9.565-3.118s4.309 6.789 15.263 15.605c13.736 11.055 25.331 12.552 36.472 13.465 5.15 0.422 6.625-2.379 1.484-2.898z" fill="#C94A73" p-id="8034"></path><path d="M753.137 662.416c-1.35-20.246-6.954-37.997-12.375-55.163-6.121-19.387-12.45-39.43-13.141-63.98 7.582-68.189-0.895-116.536-28.309-160.081 25.234-6.545 49.284-36.781 49.284-81.225 0-39.134-9.947-43.359-14.223-43.359-2.075 0-5.089 0.9-7.662 5.188-16.718 27.864-32.312 32.438-47.392 36.862-12.73 3.734-24.8 7.274-34.188 24.251-3.311-1.59-6.808-3.062-10.424-4.427 3.911-5.257 7.312-13.626 10.893-20.55 7.411-14.328 14.702-31.364 19.937-47.002 12.09-7.571 23.937-16.711 35.688-29.596 45.124-49.475 62.425-128.122 45.859-181.19-4.875-15.618-19.437-10.92-14.683 3.211 16.94 50.353 1.542 105.153-39.741 160.673-4.87 6.55-12.935 13.285-20.398 19.194 3.24-20.799 3.244-47.108-1.774-63.71-5.081-16.808-18.468-12.522-14.701 3.139 7.961 33.096 1.253 85.975-23.496 119.152-7.106 9.526-17.578 21.522-26.644 28.327-13.639-2.924-27.031-4.621-37.717-5.277a362.1 362.1 0 0 0-22.002-0.687c-23.747-0.001-46.419 2.102-67.613 6.739-10.998-6.319-25.571-15.442-32.666-22.839-28.905-30.135-41.18-74.844-38.885-121.855 1.053-21.567-12.051-18.207-14.923-1.804-2.873 16.403-1.458 55.091 6.453 79.475-10.838-4.894-19.351-11.019-32.163-21.675-26.777-22.272-87.235-103.366-84.574-167.904 1.252-15.216-14.375-16.161-15.031 0-2.828 69.665 57.653 161.611 92.264 185.733 15.32 10.677 30.479 20.716 49.294 31.115 5.99 11.361 15.398 24.349 23.598 34.086 5.187 6.159 11.312 11.242 16.512 14.396a196.622 196.622 0 0 0-12.666 5.182c-14.395-16.316-36.975-21.436-65.725-30.066-17.081-5.128-37.748-10.966-56.46-19.038-3.207-1.383-6.126-2.085-8.676-2.086-4.864-0.001-7.544 2.433-8.937 4.476-4.417 6.48-2.77 18.928 5.185 39.175 11.608 29.549 33.445 66.174 60.828 83.418-41.458 55.152-48.547 145.348-52.824 199.742-0.509 6.472-0.989 12.585-1.476 17.942-7.022 77.239-70.176 78.988-131.25 80.68-15.316 0.424-29.782 0.825-43.389 2.38l-4.754 0.543 1.16 4.642c5.73 22.919 14.742 45.675 26.657 67.746 0.236 0.445 0.478 0.886 0.716 1.329 0.651 1.193 1.288 2.389 1.956 3.578 33.089 59.833 85.645 107.365 141.243 141.532 59.008 36.263 118.157 52.33 162.84 55.123 22.375 1.398 49.879-3.305 66.075-8.041 96.377-28.18 97.801-105.211 107.503-160.012 1.251-7.067 5.244-31.989 5.8-38.292 13.756-0.608 26.772-3.018 38.73-6.993 19.129-6.098 35.517-16.159 47.883-29.701 17.642-19.319 26.352-45.059 24.524-72.476z m-67.924 96.23c-13.626 5.094-29.148 8.098-46.342 8.513h-0.003c-57.542-0.987-97.235-32.411-152.663-75.157-5.287-4.077-8.701-0.298-4.228 3.288 56.838 45.564 101.932 73.044 155.012 76.567-6.355 62.502-13.98 112.328-38.022 146.313-24.573 34.735-63.765 50.509-123.06 53.82-68.872 3.846-174.372-43.556-239.827-102.065-46.022-41.722-82.934-93.859-99.978-151.985-0.148-0.508-2.083-7.378-2.82-10.326l-0.002-0.006c17.155-1.961 36.307-2.079 55.529-2.725 1.201-0.04 22.814-1.016 32.159-2.015 31.544-3.374 43.506-10.212 45.436-11.096 24.12-11.042 41.644-31.698 45.218-71.012 1.161-12.774 4.315-48.874 5.281-60.465 1.51-18.123 9.201-64.795 15.899-86.174 8.398-26.805 18.984-52.514 35.189-72.622-1.783-0.969-7.014-4.332-7.871-4.942-12.001-8.548-22.17-21.398-32.02-34.475-4.443-5.899-12.436-17.96-22.972-45.229-10.881-28.16-7.234-40.24 0.35-37.233 10.138 4.02 48.464 17.393 66.818 22.506 21.412 5.965 46.738 19.386 54.669 25.958 4.589 3.802 7.735 8.653 7.735 8.653 17.966-8.422 37.834-14.356 60.787-18.485 10.444-1.879 38.065-5.61 51.042-5.594 18.558 0.023 44.369 4.23 53.839 6.293 10.643 2.319 44.38 15.633 47.196 17.131 9.789-19.927 32.598-27.587 41.603-30.765 17.83-6.293 34.611-26.57 41.145-39.362a6.942 6.942 0 0 1 1.952-2.34c0.69-0.537 1.399-0.811 2.112-0.811 0.924 0 1.854 0.453 2.755 1.361 1.802 1.817 3.49 5.459 4.786 10.955 1.511 6.411 2.488 15.345 2.488 26.848 0 11.297-1.634 21.682-4.49 30.943-1.785 5.788-5.453 13.764-8.314 18.85-9.569 17.009-24.677 27.051-39.249 28.416a219.53 219.53 0 0 1 7.716 12.379 190.855 190.855 0 0 1 6.217 11.683 184.63 184.63 0 0 1 3.572 7.775 180.093 180.093 0 0 1 4.778 12.295 185.317 185.317 0 0 1 4.03 13.17 194.825 194.825 0 0 1 2.241 9.33 212.692 212.692 0 0 1 2.645 14.918c0.439 3.104 0.823 6.278 1.15 9.53 0.399 3.98 0.715 8.071 0.937 12.287 0.2 3.79 0.327 7.677 0.378 11.67 0.027 2.11 0.034 4.247 0.018 6.416-0.094 12.731-0.934 26.495-2.608 41.468 1.17 44.444 20.109 73.512 24.794 111.809 0.312 2.553 0.561 5.147 0.737 7.79 2.812 42.271-23.833 79.738-63.744 95.949z" fill="#C94A73" p-id="8035"></path><path d="M515.096 502.435c-17.57-6.389-34.502-2.875-43.128 5.75-3.354 19.168 6.159 47.921 29.231 53.67 16.807 4.188 39.837-1.616 45.044 0 4.632 1.438 5.302-7.169 3.354-14.376-4.791-17.729-18.748-39.315-34.501-45.044zM726.238 479.683c-2.818-12.996-16.523-15.76-26.54-9.395-8.787 5.584-15.736 36.326-13.153 54.254 0.74 5.135 3.288 3.993 8.69 3.993 6.551 0 5.754 3.053 18.554 2.818 6.124-0.112 11.352-3.914 12.761-10.021 3.393-14.698 1.637-32.662-0.312-41.649z" fill="#8A2C35" p-id="8036"></path><path d="M515.412 515.252c-14.386-6.899-37.334-6.765-40.481 5.297-2.818 10.804 6.826 30.89 21.451 37.266 12.213 5.324 29.75 4.541 42.902 2.192 12.271-2.191-9.486-37.856-23.872-44.755zM707.449 491.426c-9.708 3.445-22.644 35.161-14.789 33.44 7.621-1.67 17.194 8.119 27.706 1.311 5.879-3.808 6.498-18.88 6.498-26.922s-5.027-12.935-19.415-7.829z" fill="#FFFFFF" p-id="8037"></path><path d="M507.327 507.561c-16.278 0-26.526 9.231-26.526 25.346 0 16.115 19.316 28.667 33.212 29.061 16.263 0.46 28.643 0.927 26.745-15.077-1.836-15.469-17.153-39.33-33.431-39.33zM706.732 479.785c-10.033 3.08-16.868 19.284-16.344 37.565 0.251 8.739 7.49 10.663 17.929 10.663 10.439 0 18.779-16.084 18.779-27.793 0-11.71-4.502-25.304-20.364-20.435z" fill="#000013" p-id="8038"></path><path d="M517.595 534.394c-5.613 1.034-9.729 0.775-8.799 5.818 0.93 5.044 6.233 8.294 11.846 7.259s9.409-5.962 8.48-11.005c-0.93-5.043-5.915-3.106-11.527-2.072zM718.156 508.994c-1.764-2.558-4.543-0.654-7.715 1.533s-5.536 3.831-3.771 6.389c1.764 2.558 5.766 2.859 8.938 0.671s4.313-6.035 2.548-8.593z" fill="#FFFFFF" p-id="8039"></path><path d="M744.751 474.524c-6.555 1.049-17.188-4.836-25.958-7.342-9.177-2.622-17.739 0.864-21.763 5.506-3.409 3.933-4.457 7.254-0.437 5.506 8.055-3.502 19.987-3.786 26.395-1.486 10.226 3.672 23.598 1.487 21.763-2.184zM457.551 511.774c17.263 3.785 41.517-12.603 71.933 1.556 5.647 2.629-12.848-16.431-30.97-15.508-19.983 1.018-30.642 12.339-40.963 13.952zM711.833 740.072c33.242 0 45.574-35.922 47.913-54.489 3.401-26.993-2.719-33.79-13.171-40.756-4.948-3.298-10.866-6.633-17.205-12.167-20.598-17.983-47.6 27.558-67.642 32.568-23.47 5.867-15.031 34.134-6.17 44.267 11.306 12.928 29.931 30.577 56.275 30.577z" fill="#E6568F" p-id="8040"></path><path d="M679.609 687.755c-3.92 5.93-1.602 17.933 8.402 21.647 10.589 3.931 19.56 2.083 23.48-3.847 3.92-5.93-2.49-13.932-11.335-19.779-8.846-5.847-16.627-3.951-20.547 1.979zM742.669 698.74c2.658 2.468 9.045 1.094 13.318-5.329 4.937-7.422 4.2-18.302 0.313-20.981-4.17-2.875-11.919-0.983-15.197 4.703-4.398 7.627-2.818 17.536 1.566 21.607z" fill="#D5205D" p-id="8041"></path><path d="M673.432 660.163c18.163-7.829 55.762-15.336 73.142-15.336-19.553-9.662-94.241-121.458-81.089-163.734s-4.536-100.156 23.174-115.241 46.973-42.589 48.226-96.765c0.313-5.637-1.879-10.647-6.576-3.132-33.869 54.19-59.324 30.622-83.796 68.379-22.622-12.024-58.302-19.577-81.108-20.976-53.813-3.302-96.967 5.814-131.101 22.724-17.48-26.57-90.722-41.253-120.263-53.664-7.139-2.999-11.974-4.676-11.624-2.578 0.874 8.915 48.035 21.502 70.582 34.028 45.168 25.094 37.357 52.771 76.097 64.823 56.368 17.537 66.702 86.744 135.596 117.433 63.741 28.393 105.337 149.947 88.74 164.039z" fill="#E6568F" p-id="8042"></path><path d="M722.326 652.075c-17.678 3.75-43.544-3.317-43.842 2.349-0.313 5.95 6.453 9.864 16.597 9.864 17.528 0 47.161-1.128 53.55-7.516 2.818-2.818 0.087-9.064-3.601-10.334-3.689-1.27-7.203 2.349-22.704 5.637z" fill="#FFBED4" p-id="8043"></path><path d="M383.834 241.102c3.5-8.56 9.639-11.484 16.602-6.1 4.575 3.538 5.129 6.549 6.661 9.364-1.177-2.163-3.09-7.034-2.99-11.068 0.245-9.861 6.477-10.18 16.627-11.897 9.798-1.658 16.988-0.543 16.14 9.824-0.192 2.346-3.138 9.284-6.306 12.157 9.027-8.187 19.378-16.731 24.879-7.631 7.163 11.849 12.948 24.848-4.751 27.522-4.396 0.664-11.899 0.519-13.559 0.228 3.221 1.114 5.162 2.339 7.325 3.749 10.677 6.957 19.86 17.927 5.314 24.526-15.683 7.115-27.699 20.336-33.273-0.301-1.704-6.308-2.753-12.164-3.089-17.535 0.131 2.098-0.21 5.618-0.655 8.39-2.089 12.991-6.466 26.183-18.144 18.816-9.622-6.07-20.487-20.133-8.557-32.538 2.267-2.357 5.244-4.195 8.323-6.095-1.365 0.842-5.03 1.714-6.662 1.856-10.909 0.947-8.146-12.847-3.885-23.267z" fill="#C94A73" p-id="8044"></path><path d="M382.435 233.235c3.5-8.56 9.639-11.484 16.602-6.1 4.576 3.538 5.13 6.549 6.661 9.364-1.177-2.163-3.09-7.034-2.99-11.068 0.245-9.861 6.477-10.18 16.627-11.897 9.798-1.658 16.988-0.543 16.14 9.824-0.192 2.346-3.138 9.284-6.306 12.157 9.027-8.187 19.378-16.731 24.879-7.631 7.163 11.849 12.948 24.848-4.751 27.522-4.396 0.664-11.899 0.519-13.559 0.228 3.222 1.114 5.162 2.339 7.326 3.749 10.677 6.957 19.86 17.926 5.314 24.526-15.683 7.115-27.699 20.336-33.273-0.301-1.704-6.308-2.753-12.164-3.089-17.535 0.131 2.098-0.21 5.618-0.656 8.39-2.089 12.991-6.466 26.183-18.144 18.816-9.622-6.07-20.487-20.133-8.557-32.538 2.267-2.358 5.244-4.195 8.323-6.095-1.365 0.842-5.03 1.714-6.662 1.856-10.908 0.947-8.145-12.847-3.885-23.267z" fill="#FFFFFF" p-id="8045"></path><path d="M402.112 254.216a12.046 10.371 0 1 0 24.092 0 12.046 10.371 0 1 0-24.092 0Z" fill="#FF5E89" p-id="8046"></path></svg>